<?xml version="1.0" encoding="utf-8"?>
<!-- Generator: Adobe Illustrator 21.0.0, SVG Export Plug-In . SVG Version: 6.00 Build 0)  -->
<svg version="1.1" id="Layer_1" xmlns="http://www.w3.org/2000/svg" xmlns:xlink="http://www.w3.org/1999/xlink" x="0px" y="0px"
	 viewBox="0 0 972.3 288.5" style="enable-background:new 0 0 972.3 288.5;" xml:space="preserve">
<style type="text/css">
	.st0{fill:#9CA4AF;}
	.st1{fill:#8A8D09;}
	.st2{fill:#FFFFFF;}
</style>
<path class="st0" d="M349.7,107.7c7.5-1.4,16.5-2.2,26.3-2.2c17.8,0,30.5,4.4,38.8,12.5c8.7,8.2,13.7,19.9,13.7,36.1
	c0,16.4-5,29.9-13.8,39.2c-9.1,9.4-23.9,14.4-42.5,14.4c-9,0-16.2-0.4-22.5-1.2V107.7z M362,196.6c3.1,0.5,7.7,0.6,12.5,0.6
	c26.6,0,40.8-15.6,40.8-42.7c0.2-23.7-12.7-38.8-38.8-38.8c-6.4,0-11.2,0.6-14.5,1.3V196.6z"/>
<path class="st0" d="M457.9,114.2c0,4.5-3,8.1-8,8.1c-4.5,0-7.5-3.6-7.5-8.1c0-4.5,3.1-8.2,7.8-8.2
	C454.8,106,457.9,109.6,457.9,114.2 M444,134.5h12.5v72.3H444V134.5z"/>
<path class="st0" d="M536.1,196.2c0,16.7-3.3,26.8-9.8,33.2c-6.8,6.4-16.5,8.7-25.2,8.7c-8.3,0-17.4-2.1-22.9-6l3.1-10.1
	c4.5,3.1,11.7,5.8,20.2,5.8c12.8,0,22.2-7,22.2-25.4v-7.9h-0.3c-3.7,6.7-11.2,12.1-21.9,12.1c-17.1,0-29.3-15.2-29.3-35.2
	c0-24.5,15.2-38.2,31.2-38.2c12,0,18.4,6.4,21.5,12.4h0.3l0.4-10.9h11.1c-0.4,5.1-0.6,11-0.6,19.7V196.2z M523.6,163
	c0-2.2-0.1-4.1-0.7-5.8c-2.3-7.8-8.2-14-17.5-14c-12,0-20.5,10.6-20.5,27.3c0,14.2,7,26,20.3,26c7.8,0,14.8-5.1,17.4-13.4
	c0.7-2.2,1-4.8,1-7V163z"/>
<path class="st0" d="M569.8,114.2c0,4.5-3,8.1-7.9,8.1c-4.6,0-7.5-3.6-7.5-8.1c0-4.5,3.1-8.2,7.8-8.2
	C566.7,106,569.8,109.6,569.8,114.2 M555.9,134.5h12.5v72.3h-12.5V134.5z"/>
<path class="st0" d="M662.7,202.3c-5.5,2.3-16.6,5.5-29.6,5.5c-14.5,0-26.5-3.9-35.8-13.3c-8.2-8.4-13.4-21.8-13.4-37.5
	c0-30,19.8-52,51.9-52c11.1,0,19.9,2.6,24,4.6l-3.1,10.6c-5.1-2.5-11.5-4.3-21.2-4.3c-23.3,0-38.5,15.2-38.5,40.5
	c0,25.5,14.5,40.6,37,40.6c8.1,0,13.7-1.2,16.5-2.7v-30h-19.3v-10.4h31.6V202.3z"/>
<path class="st0" d="M681.1,157.1c0-8.5-0.1-15.8-0.6-22.5h11l0.6,14.3h0.4c3.1-9.7,10.8-15.8,19.2-15.8c1.3,0,2.3,0.1,3.4,0.3v12.4
	c-1.3-0.3-2.6-0.3-4.3-0.3c-8.8,0-15.1,6.9-16.8,16.7c-0.3,1.8-0.4,4-0.4,6.1v38.5h-12.5V157.1z"/>
<path class="st0" d="M775.3,189.5c0,6.3,0.3,12.4,1,17.3H765l-1-9.1h-0.4c-3.8,5.7-11.2,10.8-21,10.8c-14,0-21.1-10.3-21.1-20.7
	c0-17.5,14.8-27,41.4-26.9v-1.5c0-5.8-1.6-16.7-15.6-16.6c-6.5,0-13.2,2-18.1,5.4l-2.8-8.8c5.7-3.7,14.1-6.3,22.8-6.3
	c21,0,26.2,15.1,26.2,29.4V189.5z M763.2,169.9c-13.7-0.3-29.2,2.2-29.2,16.3c0,8.7,5.4,12.5,11.7,12.5c9.1,0,14.9-6,16.9-12.1
	c0.4-1.5,0.6-3,0.6-4.2V169.9z"/>
<path class="st0" d="M810,117.2v17.3h17.9v10H810v39c0,9,2.4,14,9.4,14c3.4,0,5.4-0.3,7.2-0.9l0.6,10c-2.4,0.9-6.2,1.8-11.1,1.8
	c-5.8,0-10.5-2.1-13.5-5.5c-3.4-4-4.9-10.4-4.9-19v-39.4h-10.7v-10h10.7v-13.5L810,117.2z"/>
<path class="st0" d="M848.1,173.1c0.3,17.8,11,25.1,23.6,25.1c9,0,14.5-1.6,19.1-3.7l2.3,9.4c-4.4,2.1-12.1,4.6-23.1,4.6
	c-21.2,0-33.9-14.8-33.9-36.6c0-21.8,12.2-38.8,32.3-38.8c22.6,0,28.4,20.6,28.4,33.9c0,2.7-0.2,4.6-0.4,6.1H848.1z M884.8,163.6
	c0.2-8.2-3.3-21.2-17.3-21.2c-12.8,0-18.2,12.1-19.2,21.2H884.8z"/>
<path class="st0" d="M971.7,100.8v87.4c0,6.4,0.3,13.7,0.6,18.7h-11.1l-0.6-12.6h-0.4c-3.7,8.1-12,14.2-23.2,14.2
	c-16.6,0-29.6-14.8-29.6-36.8c-0.2-24,14.2-38.7,30.9-38.7c10.7,0,17.6,5.2,20.8,10.9h0.3v-43.1H971.7z M959.3,163.9
	c0-1.6-0.2-3.9-0.6-5.5c-1.8-8.2-8.7-15.1-18-15.1c-13,0-20.7,11.9-20.7,27.8c0,14.6,7,26.7,20.3,26.7c8.4,0,16.1-6,18.4-15.7
	c0.4-1.8,0.6-3.6,0.6-5.7V163.9z"/>
<path class="st1" d="M54.8,186c0-34.5,12.9-64.9,38.4-90.2c25.2-24.8,54.8-37.4,87.8-37.4c15.5,0,30.3,2.6,44.1,7.8
	c13.9,5.3,25.3,12.5,33.7,21.6c2,2.1,3.8,4.3,5.5,6.6V0H0v288.5h131.1c-17.6-4.6-33.1-13.5-46.2-26.8
	C64.9,241.6,54.8,216.1,54.8,186z"/>
<path class="st1" d="M248.4,212.2C235,223.5,220,234,201.1,234c-13.8,0-23-9.9-24.8-20.2c-9.1,9.7-19.8,14.7-31.8,14.7
	c-1.4,0.1-11.7,0.4-19.4-7c-5.9-5.7-8.7-14.4-8.2-25.7c0.4-9,4.7-24.2,13.3-36.2c14.8-20.6,31-31.1,48.3-31.1
	c10.5,0,19.1,3.8,23.9,10.2c1.2-2.6,2.8-6.1,4.5-9.9c4.9-10.7,11-24.1,12.4-27.5l0.8-1.9l27,0.1c-2.2-3-4.6-5.8-7.3-8.5
	c-13.9-13.8-33.1-20.8-56.9-20.8c-28.7,0-52.8,10.8-71.4,32c-18.7,21.4-28.2,48.9-28.2,81.7c0,28.1,7.6,51.2,22.5,68.7
	c14.8,17.3,34.4,26.1,58.1,26.1c27.2,0,51.8-9.4,72.9-27.9c10.1-8.8,17.4-17.3,24.9-29.4c0.2-0.4,0.7-1.1,1.2-2.1
	c0.5-1,1.1-1.9,1.5-2.8v-22.1C260,200.9,254.6,206.9,248.4,212.2z"/>
<path class="st1" d="M221.2,163.5l-0.9,2.2L210,189.3c-4.8,11.1-7,16.8-7,20.5c0,1.2,0.3,5,4.6,5c5.2,0,11.1-1.7,17.5-5.1
	c6.7-3.4,12.7-7.9,17.9-13.4c5.2-5.4,9.4-13,12.7-22.4c3.3-9.6,5-19.5,5-29.4c0-16.7-4.1-31.2-12.3-43.2l-18.9,42.2
	C227.7,148,224.9,154.7,221.2,163.5z"/>
<path class="st1" d="M191,288.5h73.4v-48.9C243.8,265.3,219.2,281.7,191,288.5z"/>
<path class="st1" d="M182.9,141.5c-6.5,0-16.4,2.1-27.6,19.8c-11.4,18.1-12.6,33.6-12.6,39.4c0,12.5,5,14.1,9.4,14.1
	c10.8,0,21.8-12.3,32.6-36.4l4.9-9.9c1.8-4.1,3.3-7.1,4.4-9.3c1.3-2.7,2.2-4.3,2.2-5.1c0-3.2-1.5-6.2-4.6-9.3
	C189.4,142.5,186.5,141.5,182.9,141.5z"/>
<path class="st2" d="M262.8,219.2c-0.5,1-0.9,1.7-1.2,2.1c-7.6,12.1-14.8,20.6-24.9,29.4c-21.1,18.5-45.7,27.9-72.9,27.9
	c-23.8,0-43.3-8.8-58.1-26.1c-14.9-17.5-22.5-40.6-22.5-68.7c0-32.8,9.5-60.3,28.2-81.7c18.6-21.2,42.7-32,71.4-32
	c23.8,0,43,7,56.9,20.8c2.7,2.7,5.1,5.5,7.3,8.5l-27-0.1l-0.8,1.9c-1.5,3.4-7.6,16.8-12.4,27.5c-1.7,3.8-3.3,7.3-4.5,9.9
	c-4.8-6.4-13.3-10.2-23.9-10.2c-17.3,0-33.5,10.5-48.3,31.1c-8.6,11.9-12.9,27.1-13.3,36.2c-0.5,11.3,2.3,20,8.2,25.7
	c7.7,7.4,18,7.1,19.4,7c12,0,22.7-5,31.8-14.7c1.9,10.3,11,20.2,24.8,20.2c19,0,34-10.5,47.3-21.8c6.3-5.3,11.6-11.3,16-17.9v-100
	c-1.7-2.3-3.5-4.5-5.5-6.6c-8.4-9.1-19.8-16.3-33.7-21.6c-13.8-5.2-28.7-7.8-44.1-7.8c-33,0-62.6,12.6-87.8,37.4
	c-25.5,25.3-38.4,55.7-38.4,90.2c0,30.2,10.1,55.6,30.1,75.7c13.1,13.3,28.6,22.2,46.2,26.8H191c28.2-6.8,52.7-23.1,73.4-48.9v-23.1
	C263.9,217.3,263.4,218.2,262.8,219.2z M194,159.2c-1.1,2.2-2.6,5.2-4.4,9.3l-4.9,9.9c-10.9,24.2-21.9,36.4-32.6,36.4
	c-4.4,0-9.4-1.6-9.4-14.1c0-5.8,1.2-21.3,12.6-39.4c11.2-17.8,21.1-19.8,27.6-19.8c3.7,0,6.5,1.1,8.8,3.3c3.1,3.1,4.6,6.1,4.6,9.3
	C196.2,154.9,195.4,156.5,194,159.2z M260.7,144.6c0,9.9-1.7,19.8-5,29.4c-3.2,9.4-7.5,16.9-12.7,22.4c-5.2,5.5-11.3,10-17.9,13.4
	c-6.5,3.4-12.4,5.1-17.5,5.1c-4.3,0-4.6-3.8-4.6-5c0-3.7,2.2-9.4,7-20.5l10.3-23.6l0.9-2.2c3.7-8.8,6.5-15.5,8.3-19.9l18.9-42.2
	C256.5,113.4,260.7,127.9,260.7,144.6z"/>
<g>
	<path class="st1" d="M289.4,0.5v2.1h-3.9v10.6h-2.4V2.6h-3.8V0.5H289.4z M302.4,13.2l-0.4-7.4c-0.1-1-0.1-2.2-0.1-3.5h-0.1
		c-0.3,1.1-0.7,2.6-1,3.8l-2.2,7H296l-2.2-7.2c-0.2-0.9-0.6-2.5-0.8-3.6h-0.1c0,1.2,0,2.4-0.1,3.5l-0.4,7.4h-2.3l0.9-12.7h3.6
		l2.1,6.2c0.3,1,0.5,1.9,0.8,3.2h0.1c0.3-1.1,0.6-2.2,0.8-3.1l2.1-6.3h3.4l0.9,12.7H302.4z"/>
</g>
</svg>
